HIERARCHY
ROOT Hips
{
  OFFSET 0 0 0
  CHANNELS 6 Xposition Yposition Zposition Zrotation Xrotation Yrotation
  JOINT Spine
  {
    OFFSET 0 8.18577 0
    CHANNELS 3 Zrotation Xrotation Yrotation
    JOINT Spine1
    {
      OFFSET 0 23.9492 0
      CHANNELS 3 Zrotation Xrotation Yrotation
      JOINT Neck
      {
        OFFSET 0 23.8508 2.16826
        CHANNELS 3 Zrotation Xrotation Yrotation
        JOINT Head
        {
          OFFSET 0 13.9757 -1.99653
          CHANNELS 3 Zrotation Xrotation Yrotation
          End Site
          {
            OFFSET 0 24.9566 0
          }
        }
      }
      JOINT LeftShoulder
      {
        OFFSET 3.97939 22.162 -0.249083
        CHANNELS 3 Zrotation Xrotation Yrotation
        JOINT LeftArm
        {
          OFFSET 10.8129 0 0
          CHANNELS 3 Zrotation Xrotation Yrotation
          JOINT LeftForeArm
          {
            OFFSET 31.6972 0 0
            CHANNELS 3 Zrotation Xrotation Yrotation
            JOINT LeftHand
            {
              OFFSET 27.0474 0 0
              CHANNELS 3 Zrotation Xrotation Yrotation
              End Site
              {
                OFFSET 14.974 0 0
              }
            }
          }
        }
      }
      JOINT RightShoulder
      {
        OFFSET -4.00645 22.162 -0.249083
        CHANNELS 3 Zrotation Xrotation Yrotation
        JOINT RightArm
        {
          OFFSET -10.8129 0 0
          CHANNELS 3 Zrotation Xrotation Yrotation
          JOINT RightForeArm
          {
            OFFSET -31.6972 0 0
            CHANNELS 3 Zrotation Xrotation Yrotation
            JOINT RightHand
            {
              OFFSET -27.0474 0 0
              CHANNELS 3 Zrotation Xrotation Yrotation
              End Site
              {
                OFFSET -14.974 0 0
              }
            }
          }
        }
      }
    }
  }
  JOINT LeftUpLeg
  {
    OFFSET 9.98265 0 0
    CHANNELS 3 Zrotation Xrotation Yrotation
    JOINT LeftLeg
    {
      OFFSET 0 -38.5116 0
      CHANNELS 3 Zrotation Xrotation Yrotation
      JOINT LeftFoot
      {
        OFFSET 0 -44.7893 0
        CHANNELS 3 Zrotation Xrotation Yrotation
        JOINT LeftToeBase
        {
          OFFSET 0 -6.48872 14.974
          CHANNELS 3 Zrotation Xrotation Yrotation
          End Site
          {
            OFFSET 0 0 3.99306
          }
        }
      }
    }
  }
  JOINT RightUpLeg
  {
    OFFSET -9.98265 0 0
    CHANNELS 3 Zrotation Xrotation Yrotation
    JOINT RightLeg
    {
      OFFSET 0 -38.5116 0
      CHANNELS 3 Zrotation Xrotation Yrotation
      JOINT RightFoot
      {
        OFFSET 0 -44.7893 0
        CHANNELS 3 Zrotation Xrotation Yrotation
        JOINT RightToeBase
        {
          OFFSET 0 -6.48872 14.974
          CHANNELS 3 Zrotation Xrotation Yrotation
          End Site
          {
            OFFSET 0 0 3.99306
          }
        }
      }
    }
  }
}
MOTION
Frames:	8
Frame Time:	0.00833333
0.267967 51.6055 -88.99 -63.0073 -81.419 158.162 0.904758 8.42091 -4.99992 -7.93948 -6.88237 -5.41147 4.64841 10.5697 -0.366148 -6.05856 -37.15 -3.39762 5.52394 -0.420497 -13.8431 -6.56593 20.4363 -86.4534 25.2118 -5.36261 -24.0451 16.3578 2.7562 18.3906 -3.49549 -0.147724 3.50371 57.1556 17.4471 9.82832 -65.8203 -25.7609 50.9917 -18.6123 16.3793 -39.3668 66.7121 -48.5795 59.8354 -70.8615 75.0189 75.7445 -5.38743 1.20742 -1.09773 6.20706e-033 -1.19271e-015 2.98177e-016 -63.5548 -63.2199 -51.4666 5.59327 83.0378 -10.6298 14.4651 24.9286 -19.1027 -9.93923e-017 0 -4.96962e-017 
0.25376 51.6159 -88.9853 -62.399 -81.4606 158.759 0.886165 8.44402 -5.01386 -7.74486 -6.89665 -5.4158 4.79455 10.5643 -0.431392 -6.05331 -37.0565 -3.46598 5.5207 -0.427348 -13.8686 -6.60182 20.458 -86.4414 25.2582 -5.37912 -24.0075 16.4077 2.74858 18.3781 -3.57407 -0.113866 3.50738 57.0987 17.3677 9.9007 -65.7144 -25.7316 51.053 -18.5937 16.3825 -39.3833 66.8568 -48.6793 60.0981 -71.6879 75.0893 76.3917 -5.54321 1.03152 -1.02569 0 0 -9.93923e-017 -63.4732 -63.216 -51.5478 5.59327 83.0378 -10.6298 14.4651 24.9286 -19.1027 1.98785e-016 0 -1.04362e-015 
0.23251 51.6273 -88.98 -61.6257 -81.4767 159.531 0.896891 8.49179 -5.03511 -7.55459 -6.89542 -5.42429 4.93583 10.5772 -0.456236 -6.11652 -37.0466 -3.52706 5.49537 -0.444506 -13.8829 -6.60907 20.4747 -86.4317 25.3104 -5.41227 -24.0008 16.3985 2.72558 18.3912 -3.64475 -0.0816279 3.50659 57.0182 17.3488 9.98505 -65.677 -25.725 51.032 -18.5296 16.3259 -39.4031 66.9839 -48.7805 60.2942 -72.5196 75.1307 77.1532 -5.48579 0.955004 -1.11632 1.59028e-015 7.95139e-016 2.98177e-016 -63.347 -63.1639 -51.5046 5.59327 83.0378 -10.6298 14.4651 24.9286 -19.1027 2.98177e-016 3.18055e-015 -1.63997e-015 
0.216665 51.63 -88.9724 -60.8354 -81.4907 160.294 0.906296 8.51191 -5.04874 -7.38086 -6.85037 -5.42367 5.00924 10.5687 -0.479568 -6.04388 -37.0418 -3.52216 5.49649 -0.485189 -13.8658 -6.69387 20.4364 -86.4243 25.2226 -5.38575 -24.0254 16.4536 2.75178 18.4178 -3.6883 -0.0808249 3.54335 56.9597 17.2147 10.0611 -65.5404 -25.7024 51.1082 -18.5761 16.3296 -39.3882 67.1322 -48.851 60.4917 -73.3503 75.1957 77.8665 -5.62046 0.785303 -1.08335 -3.18055e-015 -7.95139e-016 -7.95139e-016 -63.1848 -63.1444 -51.4288 5.59327 83.0378 -10.6298 14.4651 24.9286 -19.1027 9.93923e-017 3.18055e-015 -2.98177e-016 
0.203266 51.633 -88.9608 -59.931 -81.5141 161.147 0.907784 8.53972 -5.04547 -7.17272 -6.83021 -5.40592 5.13055 10.536 -0.497694 -6.12872 -37.0353 -3.58743 5.4893 -0.53226 -13.8416 -6.78706 20.4036 -86.3984 25.0883 -5.34131 -24.1234 16.5531 2.81581 18.4889 -3.76309 -0.0744732 3.59274 56.9208 17.1575 10.1016 -65.4983 -25.696 51.0783 -18.5873 16.2825 -39.3722 67.3379 -48.9036 60.7035 -74.3195 75.2519 78.7863 -5.62943 0.623405 -1.12452 1.59028e-015 -7.95139e-016 6.95746e-016 -62.9827 -63.1524 -51.3144 5.59327 83.0378 -10.6298 14.4651 24.9286 -19.1027 3.97569e-016 -6.36111e-015 6.4605e-016 
0.18926 51.6357 -88.9528 -59.1936 -81.5373 161.831 0.888361 8.58487 -5.04867 -6.96437 -6.87318 -5.39781 5.14042 10.5847 -0.526482 -6.03953 -37.1063 -3.57858 5.45194 -0.535648 -13.8269 -6.92585 20.339 -86.2831 24.8893 -5.26913 -24.3379 16.6531 2.91918 18.5565 -3.82182 -0.0392869 3.66105 56.8698 17.1906 10.1419 -65.6004 -25.7051 50.902 -18.4709 16.1522 -39.3454 67.512 -48.955 60.8903 -75.1815 75.2979 79.7052 -5.67797 0.521268 -1.29415 1.59028e-015 0 -3.97569e-016 -62.8237 -63.1673 -51.2464 5.59327 83.0378 -10.6298 14.4651 24.9286 -19.1027 -9.93923e-017 -3.18055e-015 -1.3418e-015 
0.17846 51.6356 -88.9465 -58.6627 -81.5651 162.306 0.901226 8.61734 -5.04929 -6.87246 -6.92939 -5.39787 5.18777 10.6488 -0.551415 -5.98303 -37.2155 -3.58366 5.48078 -0.529181 -13.8147 -6.94999 20.2891 -86.2457 24.7541 -5.26173 -24.4154 16.7357 2.93408 18.5985 -3.85251 -0.0422219 3.7099 56.8813 17.1953 10.1565 -65.6865 -25.6628 50.779 -18.268 16.0745 -39.2924 67.6586 -48.9987 61.0227 -76.0304 75.2863 80.452 -5.77531 0.384519 -1.23806 -1.59028e-015 0 -3.97569e-016 -62.7078 -63.1912 -51.1621 5.59327 83.0378 -10.6298 14.4651 24.9286 -19.1027 -3.97569e-016 9.54166e-015 -4.47266e-016 
0.154464 51.6241 -88.9407 -57.9804 -81.531 162.918 0.929238 8.66197 -5.03762 -6.81441 -6.90972 -5.37908 5.26115 10.6446 -0.573192 -5.99526 -37.2791 -3.61931 5.53652 -0.583731 -13.8305 -6.90119 20.3246 -86.2373 24.7548 -5.32706 -24.4157 16.7526 2.875 18.6195 -3.82494 -0.039318 3.73528 56.8297 17.2116 10.2048 -65.7964 -25.6124 50.6257 -18.0749 16.0067 -39.275 67.7535 -48.9913 61.0491 -76.9219 75.2592 81.4448 -5.76611 0.333711 -1.36407 2.48282e-032 7.95139e-016 -1.78906e-015 -62.4622 -63.1922 -50.9402 5.59327 83.0378 -10.6298 14.4651 24.9286 -19.1027 9.93923e-017 -9.54166e-015 2.48481e-016 
